<?xml version="1.0" encoding="UTF-8" standalone="no"?>
<!-- Created with Inkscape (http://www.inkscape.org/) -->

<svg
   version="1.1"
   id="svg1"
   width="2560"
   height="1440"
   viewBox="0 0 2560 1440"
   sodipodi:docname="32 copy.ai"
   xmlns:inkscape="http://www.inkscape.org/namespaces/inkscape"
   xmlns:sodipodi="http://sodipodi.sourceforge.net/DTD/sodipodi-0.dtd"
   xmlns="http://www.w3.org/2000/svg"
   xmlns:svg="http://www.w3.org/2000/svg">
  <defs
     id="defs1">
    <clipPath
       clipPathUnits="userSpaceOnUse"
       id="clipPath2">
      <path
         d="M 0,1080 H 1920 V 0 H 0 Z"
         transform="translate(-1183.3335,-472.16671)"
         id="path2" />
    </clipPath>
    <clipPath
       clipPathUnits="userSpaceOnUse"
       id="clipPath4">
      <path
         d="M 0,1080 H 1920 V 0 H 0 Z"
         transform="translate(-603.45242,-388.67331)"
         id="path4" />
    </clipPath>
    <clipPath
       clipPathUnits="userSpaceOnUse"
       id="clipPath6">
      <path
         d="M 0,1080 H 1920 V 0 H 0 Z"
         transform="translate(-883.42075,-192.74243)"
         id="path6" />
    </clipPath>
    <clipPath
       clipPathUnits="userSpaceOnUse"
       id="clipPath8">
      <path
         d="M 0,1080 H 1920 V 0 H 0 Z"
         transform="translate(-869.28835,-711.26752)"
         id="path8" />
    </clipPath>
    <clipPath
       clipPathUnits="userSpaceOnUse"
       id="clipPath10">
      <path
         d="M 0,1080 H 1920 V 0 H 0 Z"
         transform="translate(-865.47002,-211.34378)"
         id="path10" />
    </clipPath>
    <clipPath
       clipPathUnits="userSpaceOnUse"
       id="clipPath12">
      <path
         d="M 0,1080 H 1920 V 0 H 0 Z"
         transform="translate(-1111.6047,-475.74271)"
         id="path12" />
    </clipPath>
    <clipPath
       clipPathUnits="userSpaceOnUse"
       id="clipPath14">
      <path
         d="M 0,1080 H 1920 V 0 H 0 Z"
         transform="translate(-1064.191,-525.74531)"
         id="path14" />
    </clipPath>
    <clipPath
       clipPathUnits="userSpaceOnUse"
       id="clipPath16">
      <path
         d="M 0,1080 H 1920 V 0 H 0 Z"
         transform="translate(-750.02499,-630.80081)"
         id="path16" />
    </clipPath>
    <clipPath
       clipPathUnits="userSpaceOnUse"
       id="clipPath18">
      <path
         d="M 0,1080 H 1920 V 0 H 0 Z"
         transform="translate(-873.63475,-671.94092)"
         id="path18" />
    </clipPath>
    <clipPath
       clipPathUnits="userSpaceOnUse"
       id="clipPath20">
      <path
         d="M 0,1080 H 1920 V 0 H 0 Z"
         transform="translate(-967.28335,-293.91458)"
         id="path20" />
    </clipPath>
    <clipPath
       clipPathUnits="userSpaceOnUse"
       id="clipPath22">
      <path
         d="M 0,1080 H 1920 V 0 H 0 Z"
         transform="translate(-865.47085,-290.97143)"
         id="path22" />
    </clipPath>
    <clipPath
       clipPathUnits="userSpaceOnUse"
       id="clipPath24">
      <path
         d="M 0,1080 H 1920 V 0 H 0 Z"
         transform="translate(-869.88752,-515.66111)"
         id="path24" />
    </clipPath>
    <clipPath
       clipPathUnits="userSpaceOnUse"
       id="clipPath26">
      <path
         d="M 0,1080 H 1920 V 0 H 0 Z"
         transform="translate(-749.81292,-470.05581)"
         id="path26" />
    </clipPath>
    <clipPath
       clipPathUnits="userSpaceOnUse"
       id="clipPath28">
      <path
         d="M 0,1080 H 1920 V 0 H 0 Z"
         transform="translate(-948.22082,-440.46781)"
         id="path28" />
    </clipPath>
    <clipPath
       clipPathUnits="userSpaceOnUse"
       id="clipPath30">
      <path
         d="M 0,1080 H 1920 V 0 H 0 Z"
         transform="translate(-993.60002,-473.51671)"
         id="path30" />
    </clipPath>
    <clipPath
       clipPathUnits="userSpaceOnUse"
       id="clipPath32">
      <path
         d="M 0,1080 H 1920 V 0 H 0 Z"
         transform="translate(-797.19894,-433.72431)"
         id="path32" />
    </clipPath>
    <clipPath
       clipPathUnits="userSpaceOnUse"
       id="clipPath34">
      <path
         d="M 0,1080 H 1920 V 0 H 0 Z"
         transform="translate(-816.60512,-552.41062)"
         id="path34" />
    </clipPath>
    <clipPath
       clipPathUnits="userSpaceOnUse"
       id="clipPath36">
      <path
         d="M 0,1080 H 1920 V 0 H 0 Z"
         transform="translate(-1139.0925,-549.49811)"
         id="path36" />
    </clipPath>
    <clipPath
       clipPathUnits="userSpaceOnUse"
       id="clipPath38">
      <path
         d="M 0,1080 H 1920 V 0 H 0 Z"
         transform="translate(-1012.8,-547.71592)"
         id="path38" />
    </clipPath>
    <clipPath
       clipPathUnits="userSpaceOnUse"
       id="clipPath40">
      <path
         d="M 0,1080 H 1920 V 0 H 0 Z"
         transform="translate(-1025.817,-414.72261)"
         id="path40" />
    </clipPath>
    <clipPath
       clipPathUnits="userSpaceOnUse"
       id="clipPath42">
      <path
         d="M 0,1080 H 1920 V 0 H 0 Z"
         transform="translate(-1146.1771,-519.91012)"
         id="path42" />
    </clipPath>
    <clipPath
       clipPathUnits="userSpaceOnUse"
       id="clipPath44">
      <path
         d="M 0,1080 H 1920 V 0 H 0 Z"
         transform="translate(-1150.8193,-469.66461)"
         id="path44" />
    </clipPath>
    <clipPath
       clipPathUnits="userSpaceOnUse"
       id="clipPath46">
      <path
         d="M 0,1080 H 1920 V 0 H 0 Z"
         transform="translate(-1111.6047,-475.74271)"
         id="path46" />
    </clipPath>
    <clipPath
       clipPathUnits="userSpaceOnUse"
       id="clipPath48">
      <path
         d="M 0,1080 H 1920 V 0 H 0 Z"
         transform="translate(-1150.6821,-459.33751)"
         id="path48" />
    </clipPath>
    <clipPath
       clipPathUnits="userSpaceOnUse"
       id="clipPath50">
      <path
         d="M 0,1080 H 1920 V 0 H 0 Z"
         transform="translate(-1109.3907,-502.06702)"
         id="path50" />
    </clipPath>
    <clipPath
       clipPathUnits="userSpaceOnUse"
       id="clipPath52">
      <path
         d="M 0,1080 H 1920 V 0 H 0 Z"
         transform="translate(-1110.9739,-450.80821)"
         id="path52" />
    </clipPath>
    <clipPath
       clipPathUnits="userSpaceOnUse"
       id="clipPath54">
      <path
         d="M 0,1080 H 1920 V 0 H 0 Z"
         transform="translate(-1148.9457,-501.12571)"
         id="path54" />
    </clipPath>
    <clipPath
       clipPathUnits="userSpaceOnUse"
       id="clipPath56">
      <path
         d="M 0,1080 H 1920 V 0 H 0 Z"
         transform="translate(-1105.1433,-524.20271)"
         id="path56" />
    </clipPath>
    <clipPath
       clipPathUnits="userSpaceOnUse"
       id="clipPath58">
      <path
         d="M 0,1080 H 1920 V 0 H 0 Z"
         transform="translate(-1111.2438,-483.28451)"
         id="path58" />
    </clipPath>
    <clipPath
       clipPathUnits="userSpaceOnUse"
       id="clipPath60">
      <path
         d="M 0,1080 H 1920 V 0 H 0 Z"
         transform="translate(-1110.7711,-488.92921)"
         id="path60" />
    </clipPath>
    <clipPath
       clipPathUnits="userSpaceOnUse"
       id="clipPath62">
      <path
         d="M 0,1080 H 1920 V 0 H 0 Z"
         transform="translate(-1111.4503,-457.39011)"
         id="path62" />
    </clipPath>
    <clipPath
       clipPathUnits="userSpaceOnUse"
       id="clipPath64">
      <path
         d="M 0,1080 H 1920 V 0 H 0 Z"
         transform="translate(-1150.459,-482.37781)"
         id="path64" />
    </clipPath>
    <clipPath
       clipPathUnits="userSpaceOnUse"
       id="clipPath66">
      <path
         d="M 0,1080 H 1920 V 0 H 0 Z"
         transform="translate(-1109.0818,-434.33611)"
         id="path66" />
    </clipPath>
    <clipPath
       clipPathUnits="userSpaceOnUse"
       id="clipPath68">
      <path
         d="M 0,1080 H 1920 V 0 H 0 Z"
         transform="translate(-1149.5413,-495.03711)"
         id="path68" />
    </clipPath>
    <clipPath
       clipPathUnits="userSpaceOnUse"
       id="clipPath70">
      <path
         d="M 0,1080 H 1920 V 0 H 0 Z"
         transform="translate(-1110.3879,-493.11041)"
         id="path70" />
    </clipPath>
    <clipPath
       clipPathUnits="userSpaceOnUse"
       id="clipPath72">
      <path
         d="M 0,1080 H 1920 V 0 H 0 Z"
         transform="translate(-1147.6596,-511.48192)"
         id="path72" />
    </clipPath>
    <clipPath
       clipPathUnits="userSpaceOnUse"
       id="clipPath74">
      <path
         d="M 0,1080 H 1920 V 0 H 0 Z"
         transform="translate(-1146.6079,-517.57522)"
         id="path74" />
    </clipPath>
    <clipPath
       clipPathUnits="userSpaceOnUse"
       id="clipPath76">
      <path
         d="M 0,1080 H 1920 V 0 H 0 Z"
         transform="translate(-1106.5117,-518.55412)"
         id="path76" />
    </clipPath>
    <clipPath
       clipPathUnits="userSpaceOnUse"
       id="clipPath78">
      <path
         d="M 0,1080 H 1920 V 0 H 0 Z"
         transform="translate(-1106.9487,-516.22561)"
         id="path78" />
    </clipPath>
    <clipPath
       clipPathUnits="userSpaceOnUse"
       id="clipPath80">
      <path
         d="M 0,1080 H 1920 V 0 H 0 Z"
         transform="translate(-1147.1191,-514.69061)"
         id="path80" />
    </clipPath>
    <clipPath
       clipPathUnits="userSpaceOnUse"
       id="clipPath82">
      <path
         d="M 0,1080 H 1920 V 0 H 0 Z"
         transform="translate(-1107.4735,-513.85711)"
         id="path82" />
    </clipPath>
    <clipPath
       clipPathUnits="userSpaceOnUse"
       id="clipPath84">
      <path
         d="M 0,1080 H 1920 V 0 H 0 Z"
         transform="translate(-1148.0349,-508.64221)"
         id="path84" />
    </clipPath>
    <clipPath
       clipPathUnits="userSpaceOnUse"
       id="clipPath86">
      <path
         d="M 0,1080 H 1920 V 0 H 0 Z"
         transform="translate(-1149.8809,-491.26381)"
         id="path86" />
    </clipPath>
    <clipPath
       clipPathUnits="userSpaceOnUse"
       id="clipPath88">
      <path
         d="M 0,1080 H 1920 V 0 H 0 Z"
         transform="translate(-1149.333,-439.22951)"
         id="path88" />
    </clipPath>
    <clipPath
       clipPathUnits="userSpaceOnUse"
       id="clipPath90">
      <path
         d="M 0,1080 H 1920 V 0 H 0 Z"
         transform="translate(-1108.7767,-505.83922)"
         id="path90" />
    </clipPath>
    <clipPath
       clipPathUnits="userSpaceOnUse"
       id="clipPath92">
      <path
         d="M 0,1080 H 1920 V 0 H 0 Z"
         transform="translate(-1150.359,-453.19251)"
         id="path92" />
    </clipPath>
    <clipPath
       clipPathUnits="userSpaceOnUse"
       id="clipPath94">
      <path
         d="M 0,1080 H 1920 V 0 H 0 Z"
         transform="translate(-1109.941,-440.88181)"
         id="path94" />
    </clipPath>
    <clipPath
       clipPathUnits="userSpaceOnUse"
       id="clipPath96">
      <path
         d="M 0,1080 H 1920 V 0 H 0 Z"
         transform="translate(-1109.5447,-437.62941)"
         id="path96" />
    </clipPath>
    <clipPath
       clipPathUnits="userSpaceOnUse"
       id="clipPath98">
      <path
         d="M 0,1080 H 1920 V 0 H 0 Z"
         transform="translate(-1148.8197,-434.88341)"
         id="path98" />
    </clipPath>
    <clipPath
       clipPathUnits="userSpaceOnUse"
       id="clipPath100">
      <path
         d="M 0,1080 H 1920 V 0 H 0 Z"
         transform="translate(-1108.0062,-510.99592)"
         id="path100" />
    </clipPath>
    <clipPath
       clipPathUnits="userSpaceOnUse"
       id="clipPath102">
      <path
         d="M 0,1080 H 1920 V 0 H 0 Z"
         transform="translate(-1149.7968,-443.81031)"
         id="path102" />
    </clipPath>
    <clipPath
       clipPathUnits="userSpaceOnUse"
       id="clipPath104">
      <path
         d="M 0,1080 H 1920 V 0 H 0 Z"
         transform="translate(-950.60132,-329.72198)"
         id="path104" />
    </clipPath>
    <clipPath
       clipPathUnits="userSpaceOnUse"
       id="clipPath106">
      <path
         d="M 0,1080 H 1920 V 0 H 0 Z"
         transform="translate(-1150.2666,-451.49631)"
         id="path106" />
    </clipPath>
    <clipPath
       clipPathUnits="userSpaceOnUse"
       id="clipPath108">
      <path
         d="M 0,1080 H 1920 V 0 H 0 Z"
         transform="translate(-975.0352,-346.82601)"
         id="path108" />
    </clipPath>
    <clipPath
       clipPathUnits="userSpaceOnUse"
       id="clipPath110">
      <path
         d="M 0,1080 H 1920 V 0 H 0 Z"
         transform="translate(-1148.4072,-431.71771)"
         id="path110" />
    </clipPath>
    <clipPath
       clipPathUnits="userSpaceOnUse"
       id="clipPath112">
      <path
         d="M 0,1080 H 1920 V 0 H 0 Z"
         transform="translate(-1108.5105,-430.59221)"
         id="path112" />
    </clipPath>
    <clipPath
       clipPathUnits="userSpaceOnUse"
       id="clipPath114">
      <path
         d="M 0,1080 H 1920 V 0 H 0 Z"
         transform="translate(-1108.4641,-508.21702)"
         id="path114" />
    </clipPath>
    <clipPath
       clipPathUnits="userSpaceOnUse"
       id="clipPath116">
      <path
         d="M 0,1080 H 1920 V 0 H 0 Z"
         transform="translate(-1011.3499,-550.47631)"
         id="path116" />
    </clipPath>
    <clipPath
       clipPathUnits="userSpaceOnUse"
       id="clipPath118">
      <path
         d="M 0,1080 H 1920 V 0 H 0 Z"
         transform="translate(-1008.0649,-555.64372)"
         id="path118" />
    </clipPath>
    <clipPath
       clipPathUnits="userSpaceOnUse"
       id="clipPath120">
      <path
         d="M 0,1080 H 1920 V 0 H 0 Z"
         transform="translate(-1015.0344,-543.44692)"
         id="path120" />
    </clipPath>
    <clipPath
       clipPathUnits="userSpaceOnUse"
       id="clipPath122">
      <path
         d="M 0,1080 H 1920 V 0 H 0 Z"
         transform="translate(-1012.8,-547.71592)"
         id="path122" />
    </clipPath>
    <clipPath
       clipPathUnits="userSpaceOnUse"
       id="clipPath124">
      <path
         d="M 0,1080 H 1920 V 0 H 0 Z"
         transform="translate(-1006.2768,-559.47451)"
         id="path124" />
    </clipPath>
    <clipPath
       clipPathUnits="userSpaceOnUse"
       id="clipPath126">
      <path
         d="M 0,1080 H 1920 V 0 H 0 Z"
         transform="translate(-1015.4985,-542.50852)"
         id="path126" />
    </clipPath>
  </defs>
  <sodipodi:namedview
     id="namedview1"
     pagecolor="#ffffff"
     bordercolor="#000000"
     borderopacity="0.25"
     inkscape:showpageshadow="2"
     inkscape:pageopacity="0.0"
     inkscape:pagecheckerboard="0"
     inkscape:deskcolor="#d1d1d1">
    <inkscape:page
       x="0"
       y="0"
       inkscape:label="1"
       id="page1"
       width="2560"
       height="1440"
       margin="216 982.22668 396.88934 750.66669"
       bleed="0" />
  </sodipodi:namedview>
  <g
     id="layer-MC0"
     inkscape:groupmode="layer"
     inkscape:label="Layer 1">
    <path
       id="path1"
       d="m 0,0 c 0,-171.3 -138.866,-310.167 -310.167,-310.167 -171.3,0 -310.166,138.867 -310.166,310.167 0,171.3 138.866,310.167 310.166,310.167 C -138.866,310.167 0,171.3 0,0"
       style="fill:#020e1b;fill-opacity:1;fill-rule:nonzero;stroke:none"
       transform="matrix(1.3333333,0,0,-1.3333333,1577.7779,810.4444)"
       clip-path="url(#clipPath2)" />
    <path
       id="path3"
       d="m 0,0 c -0.263,0.476 -0.695,0.968 -0.821,1.528 -1.893,8.442 -3.754,16.891 -5.605,25.343 -0.897,4.097 -1.769,8.201 -2.623,12.308 -0.142,0.681 -0.176,1.395 -0.179,2.094 -0.016,4.995 0.004,9.991 -1.808,14.77 -0.132,0.349 -0.07,0.776 -0.077,1.167 -0.164,10.014 -0.3,20.029 -0.503,30.043 -0.056,2.769 -0.568,5.549 -0.415,8.298 0.266,4.807 0.766,9.609 1.383,14.385 1.039,8.033 2.093,16.069 3.435,24.055 0.906,5.389 2.077,10.762 3.561,16.021 2.222,7.873 4.553,15.738 7.338,23.425 2.787,7.694 6.028,15.236 9.366,22.713 3.167,7.093 6.395,14.196 10.184,20.966 4.339,7.753 9.152,15.26 14.085,22.656 4.286,6.426 8.908,12.638 13.61,18.77 2.747,3.584 5.864,6.896 8.952,10.203 4.204,4.504 8.411,9.017 12.851,13.284 4.829,4.643 9.878,9.062 14.923,13.474 3.107,2.717 6.421,5.197 9.57,7.868 1.299,1.1 2.418,1.104 3.414,-0.19 4.095,-5.325 8.163,-10.671 12.198,-16.041 2.531,-3.367 4.88,-6.875 7.51,-10.159 1.814,-2.264 2.065,-2.736 -0.052,-4.627 -5.103,-4.56 -10.4,-8.906 -15.442,-13.531 -4.495,-4.125 -8.917,-8.356 -13.065,-12.824 -3.606,-3.884 -6.894,-8.08 -10.124,-12.29 -4.411,-5.748 -8.828,-11.508 -12.885,-17.504 -4.713,-6.966 -9.128,-14.14 -13.512,-21.321 -6.384,-10.455 -10.787,-21.826 -14.63,-33.384 -2.702,-8.128 -4.614,-16.517 -7.199,-24.687 -2.941,-9.295 -3.277,-19.004 -4.958,-28.495 -0.403,-2.282 -0.042,-4.691 -0.127,-7.039 -0.286,-7.884 -0.98,-15.775 -0.827,-23.649 0.162,-8.399 0.9,-16.804 1.779,-25.165 0.742,-7.048 1.988,-14.047 3.122,-21.05 0.732,-4.521 1.616,-9.021 2.531,-13.51 0.306,-1.499 1.056,-2.909 1.349,-4.41 C 36.6,12.008 36.024,11.249 34.269,10.821 29.951,9.768 25.73,8.309 21.489,6.953 14.385,4.682 7.295,2.363 0,0"
       style="fill:#08222B;fill-opacity:1;fill-rule:nonzero;stroke:none"
       transform="matrix(1.3333333,0,0,-1.3333333,804.6032,921.76893)"
       clip-path="url(#clipPath4)" />
    <path
       id="path5"
       d="m 0,0 c -8.883,-0.012 -9.012,-0.011 -8.993,6.267 0.025,8.21 0.283,16.42 0.431,24.631 0.029,1.566 0.027,3.133 0.008,4.699 -0.016,1.363 0.618,1.947 1.988,2.02 5.143,0.276 10.3,0.453 15.419,0.981 6.116,0.631 12.202,1.563 18.296,2.406 2.623,0.362 5.279,0.639 7.837,1.283 8.074,2.032 16.16,4.043 24.139,6.406 5.649,1.673 11.224,3.682 16.667,5.939 6.834,2.834 13.578,5.917 20.216,9.189 5.931,2.923 11.831,5.979 17.441,9.466 6.816,4.235 13.588,8.636 19.876,13.602 7.214,5.698 14.103,11.861 20.711,18.258 5.345,5.174 10.089,10.973 15.052,16.537 2.437,2.731 4.849,5.491 7.119,8.359 2.209,2.791 4.281,5.696 6.308,8.623 2.945,4.253 5.942,8.481 8.648,12.884 3.085,5.02 5.951,10.18 8.771,15.356 2.198,4.034 4.302,8.13 6.227,12.301 2.513,5.446 4.808,10.993 7.192,16.498 0.093,0.214 0.115,0.457 0.2,0.674 1.204,3.084 1.5,3.149 4.61,2.056 6.375,-2.239 12.768,-4.428 19.181,-6.554 4.11,-1.362 8.25,-2.649 12.419,-3.816 1.577,-0.442 1.848,-1.105 1.248,-2.519 -3.41,-8.034 -6.39,-16.278 -10.264,-24.08 -5.092,-10.252 -10.471,-20.41 -16.48,-30.144 -5.932,-9.611 -12.63,-18.769 -19.325,-27.881 C 200.933,97.985 196.456,92.84 191.875,87.843 187.038,82.566 181.97,77.478 176.734,72.595 172.745,68.874 168.391,65.535 164.101,62.15 158.179,57.479 152.297,52.738 146.148,48.379 141.088,44.791 135.793,41.483 130.37,38.468 121.794,33.701 113.136,29.052 104.299,24.796 97.919,21.724 91.144,19.483 84.63,16.676 73.179,11.743 61.12,8.765 49.065,5.963 39.931,3.84 30.563,2.586 21.236,1.477 13.266,0.53 5.206,0.341 0,0"
       style="fill:#b2d8dc;fill-opacity:1;fill-rule:nonzero;stroke:none"
       transform="matrix(1.3333333,0,0,-1.3333333,1177.8943,1183.0101)"
       clip-path="url(#clipPath6)" />
    <path
       id="path7"
       d="m 0,0 c -7.806,-0.671 -17.325,-1.181 -26.755,-2.387 -9.586,-1.226 -19.151,-2.827 -28.599,-4.853 -7.151,-1.534 -14.118,-3.941 -21.136,-6.06 -4.384,-1.323 -8.799,-2.616 -13.042,-4.319 -4.461,-1.79 -8.765,-3.984 -13.077,-6.125 -4.469,-2.219 -8.922,-4.482 -13.271,-6.924 -2.908,-1.633 -5.611,-3.629 -8.426,-5.43 -2.016,-1.289 -4.065,-2.524 -6.1,-3.783 -1.175,-0.728 -2.335,-1.481 -3.528,-2.179 -2.141,-1.251 -3.392,-1.056 -4.782,0.955 -2.176,3.147 -4.174,6.418 -6.373,9.548 -2.551,3.632 -5.265,7.149 -7.855,10.755 -1.59,2.213 -3.171,4.444 -4.585,6.77 -1.092,1.797 0.243,3.013 1.532,3.905 2.759,1.909 5.554,3.786 8.465,5.447 6.835,3.901 13.604,7.957 20.663,11.412 8.533,4.177 17.257,7.993 26.051,11.593 6.464,2.646 13.115,4.881 19.789,6.956 7.366,2.291 14.823,4.317 22.301,6.218 5.495,1.398 11.054,2.623 16.648,3.533 5.84,0.951 11.739,1.707 17.641,2.062 11.145,0.669 22.314,1.396 33.468,1.32 8.234,-0.055 16.462,-1.329 24.689,-2.094 3.335,-0.31 6.668,-0.663 9.989,-1.09 1.447,-0.187 2.862,-0.615 4.293,-0.923 5.593,-1.204 11.203,-2.334 16.776,-3.625 5.14,-1.189 10.294,-2.371 15.346,-3.88 6.076,-1.814 12.131,-3.759 18.044,-6.04 6.085,-2.347 11.993,-5.154 17.967,-7.784 4.536,-1.998 9.211,-3.748 13.552,-6.109 10.18,-5.535 20.206,-11.353 30.271,-17.097 2.145,-1.224 1.329,-3.034 0.399,-4.473 -1.777,-2.748 -3.769,-5.359 -5.712,-7.998 -1.571,-2.133 -3.222,-4.206 -4.799,-6.334 -1.945,-2.625 -3.756,-5.354 -5.806,-7.893 -1.365,-1.691 -2.914,-3.302 -4.648,-4.59 -0.68,-0.504 -2.304,-0.407 -3.133,0.062 -7.674,4.343 -15.166,9.015 -22.918,13.208 -5.813,3.144 -11.87,5.863 -17.931,8.514 -5.478,2.395 -11.022,4.706 -16.695,6.571 -6.506,2.138 -13.149,3.897 -19.802,5.536 -6.499,1.6 -13.055,3.015 -19.644,4.186 -5.212,0.926 -10.497,1.53 -15.775,1.972 C 16.258,-0.862 9,-0.546 0,0"
       style="fill:#b2d8dc;fill-opacity:1;fill-rule:nonzero;stroke:none"
       transform="matrix(1.3333333,0,0,-1.3333333,1159.0511,491.64333)"
       clip-path="url(#clipPath8)" />
    <path
       id="path9"
       d="m 0,0 c -0.003,-5.328 0.004,-10.655 -0.006,-15.983 -0.005,-2.915 -0.236,-3.288 -3.018,-3.063 -8.084,0.656 -16.172,1.324 -24.229,2.239 -7.051,0.802 -14.111,1.694 -21.079,3.011 -6.282,1.188 -12.5,2.817 -18.647,4.594 -8.005,2.315 -15.995,4.736 -23.837,7.546 -7.337,2.629 -14.574,5.601 -21.663,8.843 -5.447,2.492 -10.591,5.646 -15.886,8.477 -0.528,0.283 -1.166,0.357 -1.747,0.548 -0.886,0.29 -1.864,0.443 -2.631,0.926 -2.949,1.857 -5.788,3.891 -8.754,5.72 -1.495,0.921 -3.344,1.31 -4.745,2.334 -11.181,8.179 -22.858,15.713 -32.848,25.447 -3.573,3.481 -7.641,6.459 -11.153,9.994 -4.671,4.698 -9.02,9.716 -13.506,14.598 -2.69,2.927 -5.443,5.801 -8.056,8.796 -5.881,6.739 -11.559,13.621 -16.185,21.337 -3.893,6.491 -8.349,12.651 -12.112,19.213 -3.259,5.683 -6.157,11.611 -8.738,17.635 -3.134,7.315 -5.781,14.838 -8.604,22.285 -0.328,0.865 -0.501,1.807 -0.623,2.729 -0.243,1.834 0.509,2.775 2.409,3.324 10.017,2.897 19.956,6.066 29.991,8.896 3.957,1.115 4.044,1.777 5.841,-2.751 2.736,-6.892 5.491,-13.784 8.523,-20.549 5.025,-11.214 11.215,-21.792 18.271,-31.848 4.081,-5.816 7.883,-11.913 12.597,-17.18 8.172,-9.13 16.86,-17.809 25.525,-26.485 4.077,-4.082 8.458,-7.898 12.968,-11.501 4.266,-3.407 8.829,-6.454 13.357,-9.517 4.338,-2.935 8.661,-5.94 13.24,-8.46 6.821,-3.753 13.798,-7.242 20.83,-10.588 5.114,-2.433 10.371,-4.592 15.664,-6.61 3.812,-1.453 7.751,-2.612 11.699,-3.656 7.439,-1.967 14.882,-3.956 22.404,-5.556 5.99,-1.275 12.08,-2.15 18.162,-2.905 7.722,-0.958 15.483,-1.604 23.224,-2.408 C -0.06,19.09 -0.001,19.001 0.002,15.748 0.006,10.498 0.003,5.249 0,0"
       style="fill:#08222B;fill-opacity:1;fill-rule:nonzero;stroke:none"
       transform="matrix(1.3333333,0,0,-1.3333333,1153.96,1158.2083)"
       clip-path="url(#clipPath10)" />
    <path
       id="path11"
       d="M 0,0 C -0.049,1.263 -0.098,2.526 -0.147,3.789 -0.219,5.04 -0.29,6.291 -0.361,7.542 -0.41,8.22 -0.46,8.898 -0.509,9.577 c -0.108,1.203 -0.216,2.406 -0.324,3.61 -0.02,0.231 -0.04,0.463 -0.059,0.695 -0.108,1.162 -0.216,2.324 -0.325,3.486 -0.101,1.157 -0.202,2.314 -0.303,3.471 -0.231,1.828 -0.463,3.657 -0.694,5.485 -0.112,0.789 -0.225,1.578 -0.337,2.366 -0.092,0.469 -0.185,0.938 -0.277,1.407 -0.084,0.641 -0.169,1.282 -0.253,1.924 -0.02,0.151 -0.04,0.302 -0.06,0.453 -0.1,0.63 -0.201,1.26 -0.302,1.889 -0.052,0.297 -0.104,0.593 -0.156,0.89 -0.057,0.386 -0.116,0.771 -0.174,1.156 -0.119,0.569 -0.239,1.137 -0.358,1.705 -0.052,0.206 -0.104,0.412 -0.156,0.618 l -0.369,1.751 c -0.068,0.306 -0.136,0.611 -0.204,0.917 -0.078,0.47 -0.155,0.941 -0.233,1.411 -0.04,0.204 -0.08,0.408 -0.12,0.612 -0.416,1.679 -0.832,3.358 -1.248,5.037 -0.082,0.316 -0.163,0.632 -0.244,0.947 -0.018,0.68 0.103,1.399 -0.076,2.034 -2.241,7.963 -4.266,16.001 -6.879,23.842 -2.19,6.572 -4.89,12.996 -7.717,19.328 -2.377,5.327 -5.24,10.438 -7.928,15.625 -4.414,8.515 -9.473,16.64 -15.262,24.283 -5.124,6.765 -10.268,13.53 -15.736,20.014 -3.409,4.042 -7.277,7.739 -11.221,11.277 -6.155,5.521 -12.479,10.862 -18.867,16.113 -3.88,3.188 -3.995,3.048 -1.011,7.017 0.094,0.125 0.18,0.256 0.271,0.383 5.614,7.856 11.22,15.717 16.848,23.563 1.126,1.568 2.45,2.114 4.145,0.679 4.818,-4.079 9.735,-8.044 14.481,-12.204 3.872,-3.395 7.542,-7.02 11.328,-10.513 1.197,-1.105 2.645,-1.973 3.695,-3.194 4.873,-5.665 9.467,-11.578 14.5,-17.094 6.073,-6.656 11.439,-13.778 16.058,-21.502 0.906,-1.514 2.43,-2.655 3.367,-4.157 3.33,-5.331 6.525,-10.746 9.786,-16.12 0.484,-0.798 1.175,-1.489 1.558,-2.326 3.208,-7.015 6.346,-14.062 9.546,-21.08 2.456,-5.386 4.994,-10.736 7.449,-16.122 0.709,-1.556 1.28,-3.177 1.881,-4.781 1.337,-3.568 2.652,-7.144 3.977,-10.717 0.092,-0.311 0.184,-0.622 0.276,-0.932 0.031,-0.445 0,-0.904 0.101,-1.331 1.169,-4.906 2.344,-9.811 3.547,-14.708 1.033,-4.21 2.105,-8.411 3.161,-12.617 0.043,-0.22 0.086,-0.44 0.129,-0.661 0.1,-0.558 0.201,-1.116 0.301,-1.673 0.059,-0.377 0.117,-0.753 0.175,-1.129 0.112,-0.586 0.224,-1.171 0.337,-1.756 0.074,-0.302 0.149,-0.603 0.223,-0.905 0.106,-0.768 0.211,-1.536 0.317,-2.304 0.082,-0.478 0.164,-0.957 0.246,-1.436 0.043,-0.468 0.086,-0.936 0.129,-1.403 0.091,-0.637 0.182,-1.273 0.272,-1.909 0.213,-1.869 0.426,-3.739 0.639,-5.608 0.12,-0.948 0.24,-1.897 0.36,-2.845 0.079,-1.081 0.157,-2.162 0.236,-3.244 0.067,-0.798 0.133,-1.596 0.2,-2.395 0.047,-0.459 0.093,-0.919 0.139,-1.378 0.116,-1.895 0.231,-3.79 0.347,-5.685 0.077,-1.067 0.154,-2.134 0.231,-3.201 0.073,-1.291 0.145,-2.583 0.218,-3.874 0.047,-2.946 0.095,-5.892 0.143,-8.839 -0.002,-1.434 -0.004,-2.867 -0.006,-4.3 -0.044,-2.009 -0.088,-4.018 -0.131,-6.027 -0.069,-1.284 -0.138,-2.568 -0.206,-3.851 -0.039,-0.765 -0.079,-1.53 -0.118,-2.294 -0.027,-0.522 -0.055,-1.044 -0.082,-1.566 0,0 -0.01,-0.13 -0.01,-0.13 -0.141,-2.272 -0.283,-4.544 -0.424,-6.816 -0.015,-0.29 -0.031,-0.58 -0.046,-0.87 -0.067,-0.645 -0.135,-1.289 -0.202,-1.933 -0.088,-0.883 -0.175,-1.765 -0.262,-2.648 -0.139,-1.158 -0.278,-2.315 -0.417,-3.473 -0.032,-0.291 -0.064,-0.582 -0.096,-0.873 -0.131,-0.986 -0.262,-1.973 -0.394,-2.958 -0.083,-0.062 -0.089,-0.132 -0.018,-0.208 -1.841,-15.329 -5.564,-30.242 -9.627,-45.227 -4.613,1.523 -8.884,2.927 -13.15,4.344 -7.271,2.414 -14.52,4.898 -21.82,7.219 -2.11,0.671 -2.423,1.491 -1.876,3.694 2.337,9.399 4.363,18.874 6.502,28.321 0.025,0.174 0.049,0.349 0.074,0.524 0,0 0.005,0.034 0.005,0.034 0.188,1.236 0.377,2.473 0.566,3.709 0.121,0.807 0.242,1.614 0.363,2.421 0.033,0.291 0.067,0.582 0.1,0.873 0.039,0.325 0.079,0.65 0.119,0.975 0.092,0.759 0.185,1.518 0.277,2.277 0.149,1.291 0.297,2.582 0.445,3.873 0.196,2.017 0.392,4.035 0.588,6.054 0.108,1.262 0.216,2.524 0.324,3.785 0.051,0.932 0.102,1.864 0.153,2.796 0.038,1.26 0.075,2.519 0.113,3.778 C -0.027,-9.717 -0.014,-4.858 0,0"
       style="fill:#b2d8dc;fill-opacity:1;fill-rule:nonzero;stroke:none"
       transform="matrix(1.3333333,0,0,-1.3333333,1482.1395,805.6764)"
       clip-path="url(#clipPath12)" />
    <path
       id="path13"
       d="m 0,0 c 1.335,-5.467 2.88,-10.891 3.97,-16.406 6.395,-32.353 5.082,-64.431 -3.717,-96.208 -0.125,-0.451 -0.253,-0.903 -0.418,-1.341 -0.079,-0.209 -0.247,-0.385 -0.523,-0.799 -4.295,1.464 -8.607,3.02 -12.974,4.403 -7.456,2.361 -14.937,4.643 -22.43,6.887 -1.585,0.475 -2.072,1.068 -1.584,2.822 0.89,3.196 1.42,6.492 2.1,9.745 0.127,0.154 0.253,0.308 0.38,0.463 0.183,0.626 0.366,1.253 0.549,1.88 l 1.693,8.906 c 0.045,0.326 0.091,0.652 0.137,0.977 0.314,2.508 0.628,5.015 0.942,7.522 0.01,0.308 0.02,0.616 0.029,0.924 0.151,1.079 0.368,2.153 0.441,3.237 1.981,29.514 -4.324,57.32 -17.288,83.751 l 0.046,0.131 -0.137,0.031 c -0.124,0.259 -0.248,0.518 -0.373,0.777 -0.142,0.255 -0.285,0.51 -0.428,0.766 -0.602,1.167 -1.204,2.335 -1.806,3.503 -0.141,0.242 -0.281,0.485 -0.422,0.727 -0.343,0.678 -0.686,1.355 -1.028,2.033 -1.019,1.615 -2.037,3.23 -3.056,4.846 -0.096,0.093 -0.173,0.2 -0.229,0.321 -0.508,0.853 -1.017,1.706 -1.525,2.558 -0.088,0.424 -0.176,0.849 -0.263,1.273 l 0.009,0.171 -0.155,0.064 c -2.115,2.677 -4.149,5.425 -6.361,8.021 -8.662,10.162 -17.247,20.412 -28.429,28.02 -1.073,0.73 -1.407,1.52 -0.534,2.725 6.743,9.314 13.413,18.682 20.183,27.977 2.04,2.8 2.152,2.719 4.77,0.272 0.514,-0.481 0.991,-1.01 1.545,-1.442 9.343,-7.283 18.128,-15.216 25.587,-24.405 6.98,-8.598 13.728,-17.441 19.844,-26.663 4.294,-6.475 7.439,-13.724 10.933,-20.71 1.774,-3.546 3.186,-7.275 4.761,-10.922 0,0 0.003,-0.077 0.004,-0.078 0.559,-1.257 1.118,-2.514 1.677,-3.771 0.093,-0.328 0.186,-0.656 0.279,-0.983 -0.031,-0.061 -0.104,-0.145 -0.085,-0.178 0.061,-0.109 0.154,-0.199 0.236,-0.297 -0.061,-0.159 -0.025,-0.291 0.109,-0.398 0.217,-0.594 0.435,-1.188 0.652,-1.783 C -2.787,9.003 -2.686,8.656 -2.585,8.31 -1.897,6.153 -1.208,3.997 -0.52,1.841 -0.482,1.65 -0.443,1.459 -0.404,1.267 -0.269,0.844 -0.135,0.422 0,0"
       style="fill:#74b5c0;fill-opacity:1;fill-rule:nonzero;stroke:none"
       transform="matrix(1.3333333,0,0,-1.3333333,1418.9213,739.00627)"
       clip-path="url(#clipPath14)" />
    <path
       id="path15"
       d="m 0,0 c 0.638,-0.46 1.452,-0.794 1.886,-1.4 6.101,-8.508 12.128,-17.068 18.233,-25.573 1.024,-1.427 2.326,-2.654 3.549,-4.029 -5.227,-4.69 -10.436,-8.976 -15.177,-13.729 -4.437,-4.448 -8.614,-9.207 -12.476,-14.165 -4.52,-5.804 -8.781,-11.84 -12.761,-18.028 -2.665,-4.142 -4.698,-8.698 -6.918,-13.117 -1.566,-3.117 -2.983,-6.31 -4.434,-9.484 -0.142,-0.31 -0.056,-0.725 -0.076,-1.092 -0.139,-0.054 -0.378,-0.079 -0.404,-0.167 -1.823,-6.181 -3.628,-12.367 -5.436,-18.552 -0.078,-0.353 -0.156,-0.706 -0.233,-1.06 -1.301,-6.096 -2.926,-12.145 -3.809,-18.3 -0.772,-5.384 -0.709,-10.888 -1.015,-16.34 -0.015,-0.334 -0.03,-0.668 -0.045,-1.001 0.006,-3.733 0.011,-7.465 0.017,-11.198 0.049,-0.95 0.098,-1.9 0.147,-2.85 0.116,-1.566 0.231,-3.132 0.346,-4.699 0.083,-0.783 0.167,-1.567 0.25,-2.351 0.047,-0.466 0.095,-0.931 0.142,-1.397 0.075,-0.632 0.15,-1.264 0.225,-1.896 0.262,-1.87 0.524,-3.741 0.786,-5.611 0.06,-0.323 0.119,-0.647 0.179,-0.97 0.086,-0.461 0.172,-0.923 0.258,-1.385 0.1,-0.477 0.2,-0.954 0.3,-1.431 0.053,-0.31 0.107,-0.619 0.161,-0.929 0.089,-0.475 0.179,-0.95 0.269,-1.425 0.189,-0.939 0.379,-1.879 0.569,-2.819 0.764,-3.059 1.345,-6.182 2.37,-9.151 0.528,-1.531 -0.074,-2.136 -1.134,-2.486 -3.683,-1.218 -7.41,-2.3 -11.121,-3.433 -0.52,-0.128 -1.04,-0.256 -1.56,-0.384 -0.576,-0.182 -1.152,-0.363 -1.727,-0.545 -0.742,-0.24 -1.484,-0.479 -2.225,-0.719 0,0 -0.112,-0.021 -0.112,-0.021 -0.778,-0.224 -1.556,-0.448 -2.334,-0.672 -5.636,-1.9 -11.272,-3.8 -17.126,-5.773 -0.603,2.078 -1.14,3.926 -1.676,5.775 -0.316,1.417 -0.632,2.834 -0.948,4.251 0.057,0.159 0.033,0.305 -0.072,0.437 -0.609,2.981 -1.218,5.962 -1.826,8.943 -0.072,0.462 -0.144,0.925 -0.216,1.388 -0.558,3.296 -1.117,6.593 -1.675,9.889 -0.105,0.778 -0.21,1.556 -0.315,2.334 -0.173,1.197 -0.345,2.394 -0.518,3.591 -0.161,1.782 -0.322,3.563 -0.483,5.344 -0.075,1.254 -0.15,2.507 -0.225,3.76 -0.062,0.938 -0.124,1.875 -0.186,2.813 -0.042,0.947 -0.085,1.895 -0.128,2.842 0.104,6.586 0.208,13.173 0.311,19.759 0.005,0.151 0.009,0.301 0.013,0.452 0.019,0.789 0.039,1.579 0.058,2.368 0.012,0.15 0.023,0.3 0.035,0.45 0.339,2.98 0.677,5.959 1.016,8.938 0.114,0.788 0.229,1.577 0.343,2.366 0.03,0.309 0.06,0.618 0.089,0.928 0.152,0.94 0.303,1.88 0.455,2.82 0.148,0.948 0.297,1.895 0.445,2.842 0.552,2.822 1.104,5.645 1.655,8.468 0.082,0.46 0.163,0.921 0.245,1.381 0.373,1.187 0.799,2.362 1.112,3.565 3.711,14.248 8.411,28.144 14.906,41.383 2.367,4.826 4.978,9.532 7.477,14.293 0,0 0.021,0.042 0.021,0.042 1.649,2.59 3.298,5.179 4.947,7.769 l -0.118,0.059 c 0,0 0.104,-0.081 0.103,-0.08 0.705,1.009 1.409,2.019 2.114,3.028 0,0 0.007,0.011 0.007,0.011 1.567,2.188 3.133,4.376 4.7,6.564 0,0 0.009,0.012 0.009,0.012 1.705,2.193 3.41,4.387 5.116,6.58 0.12,0.024 0.173,0.097 0.159,0.22 0.465,0.537 0.931,1.075 1.397,1.612 l 0.399,0.465 c 0.155,0.169 0.31,0.339 0.465,0.509 0.151,0.161 0.302,0.322 0.453,0.483 0.149,0.157 0.299,0.313 0.448,0.47 0.156,0.178 0.312,0.357 0.469,0.536 0.411,0.455 0.823,0.91 1.234,1.364 0.158,0.059 0.247,0.171 0.269,0.338 1.153,1.359 2.305,2.718 3.458,4.078 0,0 0.025,0.029 0.025,0.03 0.336,0.396 0.672,0.793 1.008,1.189 0.141,0.035 0.213,0.125 0.217,0.269 0.183,0.187 0.365,0.373 0.548,0.56 0,0 -0.03,-0.053 -0.03,-0.052 0.316,0.325 0.632,0.65 0.948,0.976 0,0 -0.022,-0.023 -0.022,-0.022 0.394,0.359 0.787,0.718 1.181,1.077 0.194,0.184 0.388,0.369 0.582,0.553 0.471,0.439 0.943,0.877 1.414,1.316 0.319,0.307 0.638,0.614 0.957,0.92 0.795,0.784 1.589,1.568 2.383,2.351 l 0.457,0.435 c 1.726,1.58 3.453,3.159 5.179,4.739 0.153,0.146 0.305,0.292 0.458,0.438 0.185,0.159 0.369,0.317 0.554,0.476 0.143,0.119 0.286,0.237 0.429,0.356 0.269,0.218 0.538,0.436 0.807,0.654 0.177,0.159 0.354,0.318 0.531,0.476 0.175,0.14 0.35,0.279 0.524,0.419 0.154,0.136 0.308,0.273 0.461,0.41 0.597,0.505 1.193,1.01 1.789,1.515 0,0 0.031,0.024 0.031,0.024 0.335,0.287 0.671,0.573 1.006,0.86 l -0.015,-0.014 c 0.442,0.338 0.884,0.676 1.326,1.014 l 0.036,0.03 c 0.169,0.131 0.337,0.262 0.505,0.393 0,0 0.002,0.002 0.002,0.002 0.197,0.143 0.394,0.287 0.591,0.43 0.126,0.14 0.252,0.28 0.377,0.419 C -0.423,-0.333 -0.212,-0.166 0,0"
       style="fill:#08222B;fill-opacity:1;fill-rule:nonzero;stroke:none"
       transform="matrix(1.3333333,0,0,-1.3333333,1000.0333,598.93227)"
       clip-path="url(#clipPath16)" />
    <path
       id="path17"
       d="m 0,0 c 7.042,-0.808 14.099,-1.501 21.12,-2.46 5.978,-0.817 11.983,-1.64 17.85,-3.005 7.455,-1.735 14.784,-4.012 22.163,-6.073 2.756,-0.769 5.572,-1.4 8.229,-2.43 3.228,-1.252 6.319,-2.853 9.465,-4.314 3.649,-1.695 7.357,-3.279 10.921,-5.139 3.235,-1.69 6.352,-3.62 9.445,-5.565 3.091,-1.944 6.056,-4.088 9.138,-6.047 1.835,-1.165 2.249,-2.36 0.848,-4.2 -4.166,-5.468 -8.27,-10.983 -12.353,-16.514 -2.13,-2.885 -4.133,-5.863 -6.251,-8.757 -1.615,-2.207 -3.478,-2.575 -5.899,-1.145 -6.048,3.571 -11.945,7.418 -18.125,10.738 -7.79,4.186 -16.198,6.868 -24.801,8.851 -3.938,0.908 -7.967,1.411 -11.923,2.251 -2.494,0.529 -4.897,1.491 -7.394,2.003 -11.77,2.416 -23.655,3.551 -35.633,2.157 -7.344,-0.855 -14.674,-1.985 -21.927,-3.415 -7.16,-1.412 -14.265,-3.174 -21.301,-5.118 -7.719,-2.133 -14.797,-5.8 -21.61,-9.977 -4.522,-2.772 -9.057,-5.523 -13.585,-8.285 -2.361,-1.441 -3.135,-1.366 -4.672,0.819 -3.409,4.846 -6.648,9.813 -10.148,14.59 -2.071,2.827 -4.491,5.4 -6.788,8.058 -0.715,0.828 -1.551,1.551 -2.313,2.339 -2.601,2.691 -2.736,3.183 0.37,5.06 7.008,4.234 14.091,8.364 21.321,12.202 5.577,2.961 11.298,5.743 17.183,8.009 7.908,3.045 15.923,5.942 24.103,8.105 7.027,1.858 14.335,2.695 21.546,3.804 6.618,1.017 13.256,1.956 19.916,2.613 3.644,0.36 7.352,0.064 11.03,0.064 C -0.05,-0.52 -0.025,-0.26 0,0"
       style="fill:#74b5c0;fill-opacity:1;fill-rule:nonzero;stroke:none"
       transform="matrix(1.3333333,0,0,-1.3333333,1164.8463,544.0788)"
       clip-path="url(#clipPath18)" />
    <path
       id="path19"
       d="m 0,0 c -3.537,-1.838 -7.167,-3.521 -10.593,-5.547 -6.863,-4.058 -14.57,-5.999 -21.896,-8.871 -4.634,-1.817 -9.614,-2.766 -14.462,-4.018 -4.572,-1.18 -9.127,-2.528 -13.773,-3.295 -6.13,-1.011 -12.341,-1.526 -18.517,-2.256 -3.917,-0.463 -7.838,-0.901 -11.75,-1.407 -1.669,-0.216 -2.222,0.823 -1.635,3.23 -0.067,0.727 -0.134,1.454 -0.201,2.181 0.007,0.87 0.014,1.739 0.022,2.608 0.03,6.208 0.061,12.416 0.091,18.625 0.007,0.819 0.015,1.639 0.022,2.458 -0.002,2.498 -0.004,4.995 -0.006,7.492 0.015,0.626 0.03,1.252 0.045,1.879 0.099,0.14 0.105,0.284 0.017,0.432 0.068,0.21 0.135,0.42 0.202,0.63 1.406,0.114 2.811,0.228 4.217,0.342 1.289,0.096 2.577,0.193 3.865,0.288 1.829,0.222 3.658,0.443 5.487,0.665 8.416,1.654 16.858,3.188 25.236,5.015 3.899,0.85 7.674,2.269 11.505,3.43 1.781,0.405 3.622,0.642 5.331,1.251 3.36,1.199 6.673,2.542 9.957,3.941 3.962,1.687 7.932,3.378 11.783,5.299 2.016,1.005 3.836,2.439 5.648,3.807 1.442,1.087 2.628,2.533 4.121,3.529 3.076,2.053 6.455,3.683 9.388,5.91 3.277,2.488 7.421,4.083 9.266,8.216 0.12,0.269 0.372,0.511 0.619,0.687 5.495,3.931 10.144,8.719 14.337,13.989 1.537,1.932 3.379,3.629 4.829,5.617 1.924,2.641 3.145,5.978 5.509,8.062 2.442,2.154 3.311,5.09 4.898,7.54 3.085,4.76 4.962,10.299 7.383,15.495 0.517,1.11 1.375,2.074 1.806,3.208 0.841,2.215 1.463,4.512 2.249,6.75 0.137,0.39 0.603,0.894 0.966,0.938 1.645,0.199 2.1,1.427 2.568,2.688 4.219,-1.229 8.438,-2.457 12.657,-3.686 0.174,-0.045 0.349,-0.091 0.523,-0.137 3.744,-1.234 7.488,-2.468 11.232,-3.702 0.122,-0.108 0.262,-0.141 0.42,-0.099 0.803,-0.269 1.606,-0.538 2.408,-0.806 0.154,-0.038 0.307,-0.076 0.461,-0.113 0.775,-0.271 1.551,-0.542 2.326,-0.813 4.659,-1.814 4.444,-1.729 2.642,-6.291 C 87.026,94.589 82.257,84.323 76.481,74.525 66.248,57.165 54.095,41.343 39.017,27.89 34.633,23.978 30.03,20.312 25.527,16.535 25.219,16.328 24.91,16.119 24.602,15.911 c 0,0 0.01,0.003 0.01,0.003 C 24.382,15.776 24.151,15.638 23.921,15.5 23.804,15.4 23.687,15.299 23.571,15.198 22.76,14.629 21.949,14.061 21.138,13.492 20.974,13.491 20.86,13.415 20.797,13.264 20.498,13.046 20.199,12.828 19.9,12.611 19.761,12.505 19.622,12.4 19.483,12.294 c -0.306,-0.219 -0.613,-0.439 -0.92,-0.659 0,0 -0.029,-0.021 -0.029,-0.021 -0.17,-0.138 -0.341,-0.276 -0.511,-0.414 l 0.011,0.011 C 17.635,10.933 17.236,10.656 16.838,10.378 16.721,10.397 16.653,10.347 16.633,10.231 16.441,10.098 16.248,9.965 16.055,9.832 14.36,8.646 12.666,7.46 10.971,6.274 10.276,5.906 9.581,5.537 8.885,5.169 8.766,5.196 8.69,5.15 8.657,5.032 8.189,4.729 7.721,4.427 7.252,4.124 7.252,4.124 7.248,4.121 7.248,4.121 6.757,3.818 6.266,3.516 5.775,3.214 5.61,3.128 5.444,3.041 5.279,2.955 3.519,1.97 1.76,0.985 0,0"
       style="fill:#74b5c0;fill-opacity:1;fill-rule:nonzero;stroke:none"
       transform="matrix(1.3333333,0,0,-1.3333333,1289.7111,1048.1139)"
       clip-path="url(#clipPath20)" />
    <path
       id="path21"
       d="m 0,0 c 0,-6.25 -0.043,-12.501 0.024,-18.751 0.023,-2.097 -1.041,-2.611 -2.812,-2.337 -12.254,1.897 -24.572,3.463 -36.736,5.824 -10.49,2.036 -20.685,5.252 -30.504,9.687 -12.249,5.533 -23.996,11.983 -35.424,18.972 -8.647,5.288 -16.697,11.486 -23.842,18.784 -4.813,4.915 -10.051,9.43 -14.666,14.518 -5.39,5.941 -10.717,12.023 -15.324,18.57 -5.052,7.18 -9.614,14.769 -13.719,22.534 -3.847,7.276 -6.86,14.998 -10.153,22.561 -1.261,2.897 -0.948,3.578 2.102,4.519 5.669,1.748 11.412,3.258 17.072,5.032 4.281,1.341 8.518,2.842 12.704,4.456 2.875,1.109 3.825,0.903 5.2,-1.924 3.576,-7.355 6.961,-14.81 10.744,-22.058 3.793,-7.267 8.294,-14.106 13.671,-20.347 4.175,-4.845 7.94,-10.076 12.386,-14.65 6.784,-6.978 13.749,-13.855 22.109,-19.008 7.291,-4.494 14.581,-9.03 22.152,-13.014 5.012,-2.638 10.381,-4.843 15.838,-6.335 8.165,-2.231 16.537,-3.72 24.842,-5.418 5.557,-1.136 11.142,-2.137 16.734,-3.091 1.527,-0.26 3.12,-0.147 4.684,-0.172 C 0.224,18.303 0.466,18.085 0.469,15.039 0.475,10.027 0.471,5.014 0.471,0.002 0.314,0.001 0.157,0.001 0,0"
       style="fill:#74b5c0;fill-opacity:1;fill-rule:nonzero;stroke:none"
       transform="matrix(1.3333333,0,0,-1.3333333,1153.9611,1052.0381)"
       clip-path="url(#clipPath22)" />
    <path
       id="path23"
       d="M 0,0 C 25.435,0.866 45.487,-22.021 45.529,-44.874 45.574,-69.136 24.025,-89.956 1.24,-90.03 -24.642,-90.115 -43.999,-69.111 -44.684,-45.297 -45.368,-21.505 -23.221,1.192 0,0"
       style="fill:#1398AC;fill-opacity:1;fill-rule:nonzero;stroke:none"
       transform="matrix(1.3333333,0,0,-1.3333333,1159.85,752.45187)"
       clip-path="url(#clipPath24)" />
    <path
       id="path25"
       d="m 0,0 c 0.615,32.672 11.416,61.307 34.002,85.246 3.355,3.557 6.827,7.004 10.257,10.49 1.023,1.039 2.073,1.548 3.207,0.079 3.916,-5.07 7.921,-10.073 11.759,-15.201 3.235,-4.321 6.257,-8.802 9.436,-13.166 C 69.759,65.94 69.58,64.844 68.184,63.633 59.584,56.171 52.793,47.29 47.653,37.141 38.895,19.844 37.658,1.678 41.486,-17.044 c 0.768,-3.755 0.852,-3.658 -2.787,-4.837 -10.494,-3.4 -20.988,-6.805 -31.43,-10.362 C 5.339,-32.9 4.823,-32.314 4.31,-30.648 1.238,-20.671 0.085,-10.443 0,0"
       style="fill:#1398AC;fill-opacity:1;fill-rule:nonzero;stroke:none"
       transform="matrix(1.3333333,0,0,-1.3333333,999.75053,813.25893)"
       clip-path="url(#clipPath26)" />
    <path
       id="path27"
       d="M 0,0 C 12.41,-4.097 24.565,-8.11 37.124,-12.256 35.307,-16.474 33.68,-20.679 31.718,-24.722 27.147,-34.142 20.975,-42.487 14.254,-50.479 9.188,-56.504 3.616,-61.966 -2.65,-66.697 c -10.161,-7.671 -21.015,-14.17 -33.1,-18.345 -5.993,-2.07 -12.053,-4.066 -18.229,-5.442 -4.713,-1.05 -9.658,-1.056 -14.497,-1.56 -1.228,-0.128 -2.452,-0.56 -3.66,-0.5 -0.562,0.028 -1.545,0.895 -1.551,1.391 -0.15,11.741 -0.157,23.483 -0.292,35.224 -0.022,1.89 1.059,2.092 2.438,2.409 7.302,1.677 14.851,2.703 21.832,5.268 20.819,7.649 36.542,21.335 46.372,41.446 C -2.208,-4.497 -1.074,-2.19 0,0"
       style="fill:#1398AC;fill-opacity:1;fill-rule:nonzero;stroke:none"
       transform="matrix(1.3333333,0,0,-1.3333333,1264.2944,852.7096)"
       clip-path="url(#clipPath28)" />
    <path
       id="path29"
       d="m 0,0 c -0.246,-13.124 -1.011,-22.393 -3.079,-31.523 -0.19,-0.839 -0.358,-1.686 -0.488,-2.536 -0.627,-4.081 -0.631,-4.111 -4.496,-2.859 -10.718,3.474 -21.419,6.998 -32.147,10.436 -1.513,0.484 -1.96,1.127 -1.553,2.717 5.628,21.962 1.574,42.512 -9.212,62.039 -4.334,7.846 -10.426,14.252 -17.038,20.168 -1.513,1.354 -1.716,2.386 -0.572,3.953 5.397,7.392 10.778,14.797 16.122,22.228 1.183,1.646 2.205,3.408 3.281,5.129 1.353,2.162 2.209,2.503 4.068,0.772 4.737,-4.41 9.438,-8.879 13.883,-13.579 6.862,-7.256 12.354,-15.551 17.108,-24.295 C -8.586,42.466 -4.954,31.523 -2.774,20.187 -1.257,12.304 -0.566,4.261 0,0"
       style="fill:#1398AC;fill-opacity:1;fill-rule:nonzero;stroke:none"
       transform="matrix(1.3333333,0,0,-1.3333333,1324.8,808.6444)"
       clip-path="url(#clipPath30)" />
    <path
       id="path31"
       d="m 0,0 c -0.013,-0.119 0.028,-0.215 0.124,-0.287 1.97,-3.502 3.94,-7.003 5.91,-10.505 l 0.129,0.074 c 0,0 -0.119,-0.089 -0.119,-0.088 1.258,-1.558 2.515,-3.117 3.772,-4.674 1.731,-1.878 3.461,-3.757 5.192,-5.636 l 0.112,0.131 c 0,0 -0.12,-0.125 -0.119,-0.124 3.648,-3.095 7.295,-6.19 10.943,-9.286 l -0.006,0.004 c 1.517,-1.076 2.928,-2.366 4.573,-3.187 4.375,-2.185 8.851,-4.167 13.288,-6.23 0,0 -0.005,0.005 -0.005,0.005 0.317,-0.126 0.634,-0.252 0.95,-0.377 0.107,-0.101 0.234,-0.148 0.38,-0.143 0.344,-0.108 0.688,-0.216 1.032,-0.325 6.936,-1.57 13.855,-3.218 20.819,-4.655 1.687,-0.348 2.452,-0.855 2.449,-2.652 -0.018,-11.825 0.033,-23.649 0.068,-35.474 0.005,-1.414 -0.698,-2.031 -2.062,-1.816 -4.698,0.74 -9.369,1.688 -14.088,2.228 -6.889,0.789 -13.61,2.365 -19.984,4.92 -7.072,2.836 -13.923,6.258 -20.732,9.699 -3.377,1.706 -6.443,4.028 -9.65,6.071 -0.62,0.508 -1.24,1.017 -1.86,1.525 -0.172,0.119 -0.344,0.238 -0.516,0.357 -1.258,0.937 -2.516,1.875 -3.773,2.813 0,0 -0.008,0.005 -0.008,0.005 -0.158,0.137 -0.316,0.275 -0.473,0.412 0,0 -0.047,0.052 -0.047,0.052 -0.147,0.139 -0.294,0.279 -0.441,0.419 0,0 -0.029,0.021 -0.029,0.021 -0.519,0.394 -1.037,0.788 -1.556,1.181 0,0 -0.083,0.075 -0.083,0.074 -2.961,2.79 -5.921,5.582 -8.881,8.373 0,0 -0.05,0.057 -0.051,0.056 -2.555,2.906 -5.108,5.813 -7.662,8.719 0,0 0.002,-0.006 0.002,-0.006 -1.12,1.546 -2.239,3.093 -3.358,4.639 -0.138,0.171 -0.277,0.342 -0.415,0.513 -0.332,0.458 -0.664,0.917 -0.995,1.375 -0.312,0.475 -0.624,0.95 -0.936,1.424 -0.312,0.469 -0.625,0.937 -0.937,1.406 0,0 -0.004,0.007 -0.004,0.007 -0.174,0.266 -0.349,0.532 -0.523,0.798 -0.227,0.369 -0.455,0.738 -0.682,1.107 -0.079,0.111 -0.159,0.222 -0.239,0.333 0,0 -0.065,0.08 -0.065,0.08 -0.122,0.168 -0.244,0.336 -0.366,0.504 0,0 0,0.001 0,0.001 -0.892,1.599 -1.784,3.197 -2.676,4.796 0,0 0.011,0.008 0.01,0.007 -2.053,4.263 -4.105,8.526 -6.158,12.788 -0.081,0.24 -0.163,0.481 -0.244,0.721 -0.265,0.789 -0.531,1.578 -0.797,2.368 -0.015,0.316 -0.03,0.632 -0.045,0.948 1.216,0.449 2.43,0.906 3.65,1.345 1.781,0.64 3.566,1.268 5.35,1.901 0,0 -0.009,-0.01 -0.009,-0.01 0.923,0.33 1.847,0.66 2.77,0.99 0.161,0.038 0.321,0.077 0.482,0.115 6.354,2.034 12.693,4.12 19.073,6.071 2.05,0.627 4.209,0.897 6.318,1.33 0,0 0.007,-0.005 0.007,-0.005 C -2.128,4.817 -1.064,2.409 0,0"
       style="fill:#1398AC;fill-opacity:1;fill-rule:nonzero;stroke:none"
       transform="matrix(1.3333333,0,0,-1.3333333,1062.9319,861.70093)"
       clip-path="url(#clipPath32)" />
    <path
       id="path33"
       d="m 0,0 c -0.111,0.154 -0.222,0.308 -0.333,0.462 0.006,0.148 -0.063,0.244 -0.205,0.288 0,0 -0.07,0.142 -0.07,0.142 -0.123,0.147 -0.246,0.294 -0.368,0.442 -3.678,5.253 -7.363,10.501 -11.029,15.762 -2.23,3.2 -2.192,3.169 1.362,5.361 10.342,6.379 21.627,10.433 33.244,13.743 10.843,3.089 21.86,4.934 33.134,4.414 5.655,-0.261 11.358,-0.88 16.891,-2.042 8.512,-1.788 16.981,-3.904 25.312,-6.401 8.07,-2.42 15.19,-6.938 22.219,-11.51 1.4,-0.911 1.596,-1.853 0.535,-3.268 C 113.66,8.009 106.688,-1.421 99.69,-10.83 c -0.275,-0.37 -0.623,-0.685 -1.026,-1.123 -2.492,1.475 -4.838,3.17 -7.422,4.339 C 81.902,-3.389 72.305,0.153 62.029,1.24 47.866,2.737 34.273,0.479 21.368,-5.607 c -4.169,-1.966 -8.263,-4.09 -12.391,-6.141 -1.437,1.706 -2.874,3.411 -4.311,5.117 -0.071,0.147 -0.143,0.293 -0.215,0.439 -0.396,0.485 -0.793,0.97 -1.19,1.454 -0.056,0.146 -0.112,0.291 -0.168,0.436 -0.576,0.785 -1.153,1.571 -1.729,2.356 0,0 -0.01,0.02 -0.01,0.02 -0.139,0.173 -0.278,0.347 -0.417,0.52 0,0 0.016,-0.007 0.016,-0.007 C 0.635,-0.942 0.318,-0.471 0,0"
       style="fill:#1398AC;fill-opacity:1;fill-rule:nonzero;stroke:none"
       transform="matrix(1.3333333,0,0,-1.3333333,1088.8068,703.45253)"
       clip-path="url(#clipPath34)" />
    <path
       id="path35"
       d="m 0,0 c -1.324,3.573 -2.64,7.148 -3.977,10.716 -0.601,1.604 -1.171,3.225 -1.881,4.781 -2.455,5.387 -4.993,10.736 -7.449,16.122 -3.2,7.019 -6.338,14.066 -9.546,21.08 -0.382,0.838 -1.074,1.528 -1.558,2.326 -3.261,5.374 -6.455,10.79 -9.786,16.121 -0.937,1.501 -2.461,2.642 -3.367,4.157 -4.618,7.723 -9.985,14.845 -16.058,21.501 -5.033,5.516 -9.627,11.43 -14.5,17.095 -1.05,1.22 -2.498,2.089 -3.695,3.193 -3.786,3.494 -7.456,7.119 -11.328,10.513 -4.746,4.161 -9.662,8.126 -14.48,12.204 -1.696,1.436 -3.02,0.89 -4.146,-0.678 -5.628,-7.846 -11.234,-15.707 -16.848,-23.563 -0.091,-0.128 -0.177,-0.258 -0.271,-0.384 -2.984,-3.968 -2.869,-3.828 1.011,-7.017 6.388,-5.251 12.712,-10.591 18.867,-16.112 3.944,-3.538 7.813,-7.235 11.221,-11.277 5.468,-6.485 10.613,-13.249 15.736,-20.015 5.789,-7.642 10.848,-15.767 15.262,-24.283 2.688,-5.186 5.551,-10.298 7.928,-15.624 2.827,-6.332 5.527,-12.756 7.717,-19.328 2.613,-7.841 4.638,-15.879 6.879,-23.842 0.179,-0.635 0.058,-1.354 0.076,-2.034 -2.022,6.74 -3.905,13.526 -6.1,20.209 -3.198,9.741 -6.743,19.351 -11.629,28.416 -2.63,4.882 -4.856,9.99 -7.629,14.785 -3.044,5.267 -6.254,10.477 -9.844,15.381 -6.179,8.444 -12.402,16.894 -19.19,24.843 -5.163,6.045 -11.073,11.489 -16.943,16.882 -4.998,4.592 -10.396,8.753 -15.654,13.059 -2.002,1.639 -2.163,2.649 -0.223,5.403 2.253,3.2 4.662,6.291 6.962,9.459 4.046,5.572 8.035,11.185 12.1,16.743 2.424,3.315 2.783,3.417 5.828,0.761 7.834,-6.836 15.609,-13.742 23.352,-20.681 9.527,-8.539 17.929,-18.129 25.781,-28.194 4.518,-5.79 8.928,-11.683 13.042,-17.763 3.013,-4.452 5.488,-9.272 8.164,-13.95 2.519,-4.404 5.095,-8.781 7.458,-13.268 5.258,-9.984 9.954,-20.223 13.499,-30.958 1.57,-4.757 3.123,-9.52 4.656,-14.289 C -0.303,1.683 -0.184,0.831 0,0"
       style="fill:#b2d8dc;fill-opacity:1;fill-rule:nonzero;stroke:none"
       transform="matrix(1.3333333,0,0,-1.3333333,1518.79,707.33587)"
       clip-path="url(#clipPath36)" />
    <path
       id="path37"
       d="M 0,0 C 0.602,-1.168 1.204,-2.335 1.805,-3.501 1.948,-3.755 2.091,-4.012 2.234,-4.269 2.359,-4.528 2.483,-4.787 2.607,-5.043 2.606,-5.041 2.592,-5.158 2.592,-5.158 l 0.106,-0.049 c 12.964,-26.431 19.269,-54.238 17.288,-83.752 -0.073,-1.083 -0.29,-2.158 -0.441,-3.236 -0.138,1.375 -0.53,2.78 -0.374,4.121 1.057,9.081 0.174,18.118 -0.697,27.128 -0.508,5.256 -1.456,10.508 -2.697,15.644 -1.512,6.26 -3.267,12.493 -5.417,18.56 -2.325,6.559 -4.914,13.066 -7.975,19.308 -2.528,5.152 -5.889,9.899 -8.926,14.797 -1.877,3.03 -3.814,6.025 -5.775,9.002 -0.761,1.156 -1.607,2.268 -2.511,3.317 -3.61,4.187 -7.095,8.5 -10.938,12.464 -3.957,4.083 -8.234,7.863 -12.462,11.673 -1.414,1.274 -3.194,2.134 -4.655,3.364 -1.398,1.178 -1.456,2.705 -0.365,4.187 3.873,5.263 7.827,10.467 11.628,15.782 3.087,4.316 5.998,8.757 8.987,13.144 1.584,2.326 2.879,2.712 5.015,0.972 C -11.81,76.54 -5.79,72.005 -0.456,66.779 8.069,58.43 15.764,49.293 22.759,39.596 26.856,33.916 30.896,28.226 33.899,21.83 37.002,15.219 40.601,8.841 43.713,2.234 44.775,-0.022 45.016,-2.665 45.631,-5.132 44.055,-1.487 42.643,2.242 40.869,5.789 37.375,12.774 34.23,20.024 29.936,26.498 23.82,35.72 17.072,44.564 10.092,53.162 2.633,62.351 -6.152,70.283 -15.495,77.567 c -0.554,0.431 -1.031,0.96 -1.545,1.441 -2.618,2.447 -2.73,2.528 -4.77,-0.272 -6.77,-9.295 -13.44,-18.662 -20.183,-27.976 -0.873,-1.205 -0.539,-1.995 0.534,-2.725 11.182,-7.609 19.767,-17.859 28.429,-28.021 2.212,-2.596 4.246,-5.343 6.359,-8.02 -0.002,0.002 -0.019,-0.177 -0.019,-0.177 l 0.167,-0.058 c 0.087,-0.425 0.175,-0.849 0.261,-1.27 0.508,-0.852 1.018,-1.707 1.527,-2.561 0.056,-0.122 0.133,-0.229 0.228,-0.32 C -3.489,5.994 -2.47,4.377 -1.45,2.76 -1.108,2.083 -0.765,1.405 -0.423,0.73 -0.283,0.489 -0.141,0.244 0,0"
       style="fill:#74b5c0;fill-opacity:1;fill-rule:nonzero;stroke:none"
       transform="matrix(1.3333333,0,0,-1.3333333,1350.4,709.71213)"
       clip-path="url(#clipPath38)" />
    <path
       id="path39"
       d="m 0,0 c -0.468,-1.261 -0.922,-2.489 -2.567,-2.688 -0.364,-0.044 -0.83,-0.548 -0.967,-0.938 -0.786,-2.238 -1.407,-4.535 -2.249,-6.75 -0.431,-1.134 -1.289,-2.098 -1.806,-3.208 -2.421,-5.196 -4.298,-10.735 -7.382,-15.495 -1.587,-2.45 -2.457,-5.386 -4.898,-7.54 -2.364,-2.084 -3.586,-5.421 -5.51,-8.062 -1.449,-1.988 -3.292,-3.685 -4.828,-5.617 -4.193,-5.27 -8.843,-10.058 -14.338,-13.989 -0.247,-0.176 -0.499,-0.418 -0.619,-0.687 -1.845,-4.133 -5.989,-5.728 -9.266,-8.216 -2.933,-2.227 -6.312,-3.857 -9.388,-5.91 -1.493,-0.996 -2.679,-2.442 -4.12,-3.529 -1.812,-1.368 -3.632,-2.802 -5.648,-3.807 -3.851,-1.921 -7.821,-3.611 -11.784,-5.299 -3.283,-1.399 -6.596,-2.742 -9.957,-3.941 -1.708,-0.609 -3.549,-0.846 -5.331,-1.251 8.153,3.751 16.305,7.503 24.458,11.254 0.328,0.225 0.656,0.449 0.984,0.672 5.376,3.585 10.791,7.113 16.112,10.777 2.701,1.859 5.235,3.962 7.844,5.955 0.159,0.124 0.319,0.248 0.478,0.372 0.29,0.321 0.579,0.642 0.868,0.962 0.237,0.124 0.473,0.247 0.709,0.37 0,0 -0.029,-0.028 -0.029,-0.028 0.252,0.231 0.504,0.461 0.756,0.691 0.159,0.153 0.318,0.306 0.478,0.459 0.498,0.462 0.996,0.925 1.495,1.388 0.142,0.128 0.285,0.256 0.428,0.385 0.187,0.179 0.374,0.358 0.561,0.537 0.128,0.127 0.255,0.254 0.383,0.381 0.152,0.209 0.305,0.419 0.457,0.628 0.926,0.807 1.853,1.615 2.779,2.423 0.146,0.129 0.292,0.258 0.437,0.387 0.481,0.474 0.962,0.949 1.443,1.424 0.156,0.151 0.311,0.301 0.466,0.451 0.159,0.158 0.318,0.316 0.478,0.474 0.149,0.156 0.299,0.313 0.448,0.47 0.161,0.17 0.321,0.34 0.482,0.51 0.141,0.147 0.283,0.294 0.425,0.441 l 0.033,0.036 c 0.294,0.305 0.589,0.61 0.883,0.914 l 0.552,0.442 c 0.127,0.16 0.253,0.319 0.38,0.479 0.058,0.134 0.094,0.273 0.105,0.419 0.165,0.166 0.329,0.333 0.494,0.5 0.147,0.149 0.294,0.298 0.441,0.447 0.96,1.1 1.92,2.201 2.88,3.302 0.142,0.142 0.284,0.284 0.426,0.427 0.818,0.928 1.637,1.855 2.455,2.783 0,0 -0.014,-0.018 -0.014,-0.018 0.401,0.519 0.802,1.037 1.203,1.556 0.201,0.268 0.402,0.537 0.604,0.806 0.349,0.485 0.698,0.969 1.046,1.452 0.263,0.344 0.525,0.687 0.788,1.03 0.108,0.148 0.216,0.297 0.324,0.446 0.155,0.059 0.225,0.172 0.212,0.337 0.347,0.469 0.694,0.939 1.041,1.409 l -0.134,0.117 c 0,0 0.126,-0.126 0.126,-0.126 1.544,2.243 3.088,4.485 4.632,6.727 0,0 0.098,0.114 0.098,0.114 0.555,0.91 1.11,1.82 1.665,2.73 0.127,0.041 0.167,0.125 0.121,0.249 0.606,1.002 1.213,2.004 1.82,3.006 l -0.006,-0.013 c 2.491,4.875 4.983,9.75 7.474,14.625 l 0.12,0.088 c 0,0 -0.024,0.147 -0.024,0.148 0.493,1.166 0.985,2.331 1.477,3.497 0,0 0.042,0.109 0.042,0.11 0.601,1.535 1.203,3.069 1.804,4.604 0,0 0.043,0.122 0.043,0.123 0.248,0.587 0.496,1.175 0.744,1.762 0.13,0.09 0.161,0.207 0.096,0.351 0.202,0.471 0.405,0.943 0.607,1.415 0,0 -0.053,-0.065 -0.053,-0.064 0.155,0.185 0.31,0.371 0.465,0.556 L -2.784,1.203 C -1.856,0.802 -0.928,0.401 0,0"
       style="fill:#74b5c0;fill-opacity:1;fill-rule:nonzero;stroke:none"
       transform="matrix(1.3333333,0,0,-1.3333333,1367.7559,887.03653)"
       clip-path="url(#clipPath40)" />
    <path
       id="path41"
       d="m 0,0 c -1.055,4.205 -2.127,8.406 -3.161,12.616 -1.203,4.898 -2.377,9.803 -3.546,14.708 -0.102,0.428 -0.071,0.887 -0.101,1.331 1.646,-6.1 3.388,-12.175 4.899,-18.308 C -1.072,6.947 -0.624,3.452 0,0"
       style="fill:#b2d8dc;fill-opacity:1;fill-rule:nonzero;stroke:none"
       transform="matrix(1.3333333,0,0,-1.3333333,1528.2361,746.78653)"
       clip-path="url(#clipPath42)" />
    <path
       id="path43"
       d="M 0,0 C -0.048,2.947 -0.095,5.893 -0.143,8.839 -0.095,5.893 -0.048,2.946 0,0"
       style="fill:#74b5c0;fill-opacity:1;fill-rule:nonzero;stroke:none"
       transform="matrix(1.3333333,0,0,-1.3333333,1534.4257,813.78053)"
       clip-path="url(#clipPath44)" />
    <path
       id="path45"
       d="M 0,0 C -0.014,-4.858 -0.027,-9.717 -0.041,-14.575 -0.027,-9.717 -0.014,-4.858 0,0"
       style="fill:#74b5c0;fill-opacity:1;fill-rule:nonzero;stroke:none"
       transform="matrix(1.3333333,0,0,-1.3333333,1482.1395,805.6764)"
       clip-path="url(#clipPath46)" />
    <path
       id="path47"
       d="M 0,0 C 0.044,2.009 0.088,4.018 0.131,6.027 0.088,4.018 0.044,2.009 0,0"
       style="fill:#74b5c0;fill-opacity:1;fill-rule:nonzero;stroke:none"
       transform="matrix(1.3333333,0,0,-1.3333333,1534.2428,827.55)"
       clip-path="url(#clipPath48)" />
    <path
       id="path49"
       d="M 0,0 C 0.231,-1.829 0.463,-3.657 0.694,-5.486 0.463,-3.657 0.231,-1.829 0,0"
       style="fill:#74b5c0;fill-opacity:1;fill-rule:nonzero;stroke:none"
       transform="matrix(1.3333333,0,0,-1.3333333,1479.1876,770.57733)"
       clip-path="url(#clipPath50)" />
    <path
       id="path51"
       d="M 0,0 C -0.196,-2.018 -0.392,-4.036 -0.588,-6.054 -0.392,-4.036 -0.196,-2.018 0,0"
       style="fill:#74b5c0;fill-opacity:1;fill-rule:nonzero;stroke:none"
       transform="matrix(1.3333333,0,0,-1.3333333,1481.2985,838.9224)"
       clip-path="url(#clipPath52)" />
    <path
       id="path53"
       d="M 0,0 C -0.213,1.869 -0.426,3.739 -0.639,5.608 -0.426,3.739 -0.213,1.869 0,0"
       style="fill:#74b5c0;fill-opacity:1;fill-rule:nonzero;stroke:none"
       transform="matrix(1.3333333,0,0,-1.3333333,1531.9276,771.8324)"
       clip-path="url(#clipPath54)" />
    <path
       id="path55"
       d="M 0,0 C 0.416,-1.679 0.832,-3.358 1.248,-5.037 0.832,-3.358 0.416,-1.679 0,0"
       style="fill:#74b5c0;fill-opacity:1;fill-rule:nonzero;stroke:none"
       transform="matrix(1.3333333,0,0,-1.3333333,1473.5244,741.06307)"
       clip-path="url(#clipPath56)" />
    <path
       id="path57"
       d="M 0,0 C 0.071,-1.251 0.142,-2.502 0.213,-3.753 0.142,-2.502 0.071,-1.251 0,0"
       style="fill:#74b5c0;fill-opacity:1;fill-rule:nonzero;stroke:none"
       transform="matrix(1.3333333,0,0,-1.3333333,1481.6584,795.62067)"
       clip-path="url(#clipPath58)" />
    <path
       id="path59"
       d="M 0,0 C 0.108,-1.203 0.216,-2.406 0.324,-3.61 0.216,-2.407 0.108,-1.203 0,0"
       style="fill:#74b5c0;fill-opacity:1;fill-rule:nonzero;stroke:none"
       transform="matrix(1.3333333,0,0,-1.3333333,1481.0281,788.0944)"
       clip-path="url(#clipPath60)" />
    <path
       id="path61"
       d="M 0,0 C -0.051,-0.932 -0.101,-1.864 -0.152,-2.796 -0.101,-1.864 -0.051,-0.932 0,0"
       style="fill:#74b5c0;fill-opacity:1;fill-rule:nonzero;stroke:none"
       transform="matrix(1.3333333,0,0,-1.3333333,1481.9337,830.14653)"
       clip-path="url(#clipPath62)" />
    <path
       id="path63"
       d="M 0,0 C -0.077,1.067 -0.154,2.134 -0.232,3.201 -0.154,2.134 -0.077,1.067 0,0"
       style="fill:#74b5c0;fill-opacity:1;fill-rule:nonzero;stroke:none"
       transform="matrix(1.3333333,0,0,-1.3333333,1533.9453,796.8296)"
       clip-path="url(#clipPath64)" />
    <path
       id="path65"
       d="M 0,0 C -0.189,-1.237 -0.378,-2.473 -0.567,-3.71 -0.378,-2.473 -0.189,-1.237 0,0"
       style="fill:#74b5c0;fill-opacity:1;fill-rule:nonzero;stroke:none"
       transform="matrix(1.3333333,0,0,-1.3333333,1478.7757,860.8852)"
       clip-path="url(#clipPath66)" />
    <path
       id="path67"
       d="M 0,0 C -0.078,1.081 -0.157,2.162 -0.236,3.244 -0.157,2.162 -0.078,1.081 0,0"
       style="fill:#74b5c0;fill-opacity:1;fill-rule:nonzero;stroke:none"
       transform="matrix(1.3333333,0,0,-1.3333333,1532.7217,779.95053)"
       clip-path="url(#clipPath68)" />
    <path
       id="path69"
       d="M 0,0 C 0.108,-1.162 0.217,-2.324 0.325,-3.486 0.217,-2.324 0.108,-1.162 0,0"
       style="fill:#74b5c0;fill-opacity:1;fill-rule:nonzero;stroke:none"
       transform="matrix(1.3333333,0,0,-1.3333333,1480.5171,782.51947)"
       clip-path="url(#clipPath70)" />
    <path
       id="path71"
       d="M 0,0 C -0.106,0.768 -0.211,1.536 -0.317,2.304 -0.211,1.536 -0.106,0.768 0,0"
       style="fill:#74b5c0;fill-opacity:1;fill-rule:nonzero;stroke:none"
       transform="matrix(1.3333333,0,0,-1.3333333,1530.2127,758.02413)"
       clip-path="url(#clipPath72)" />
    <path
       id="path73"
       d="M 0,0 C -0.1,0.558 -0.201,1.116 -0.301,1.674 -0.201,1.116 -0.1,0.558 0,0"
       style="fill:#74b5c0;fill-opacity:1;fill-rule:nonzero;stroke:none"
       transform="matrix(1.3333333,0,0,-1.3333333,1528.8105,749.89973)"
       clip-path="url(#clipPath74)" />
    <path
       id="path75"
       d="M 0,0 C 0.078,-0.47 0.155,-0.941 0.233,-1.411 0.155,-0.941 0.078,-0.47 0,0"
       style="fill:#74b5c0;fill-opacity:1;fill-rule:nonzero;stroke:none"
       transform="matrix(1.3333333,0,0,-1.3333333,1475.3489,748.59453)"
       clip-path="url(#clipPath76)" />
    <path
       id="path77"
       d="M 0,0 0.369,-1.75 Z"
       style="fill:#74b5c0;fill-opacity:1;fill-rule:nonzero;stroke:none"
       transform="matrix(1.3333333,0,0,-1.3333333,1475.9316,751.6992)"
       clip-path="url(#clipPath78)" />
    <path
       id="path79"
       d="M 0,0 C -0.112,0.585 -0.224,1.17 -0.336,1.756 -0.224,1.171 -0.112,0.585 0,0"
       style="fill:#74b5c0;fill-opacity:1;fill-rule:nonzero;stroke:none"
       transform="matrix(1.3333333,0,0,-1.3333333,1529.4921,753.74587)"
       clip-path="url(#clipPath80)" />
    <path
       id="path81"
       d="M 0,0 C 0.12,-0.568 0.239,-1.137 0.358,-1.705 0.239,-1.137 0.12,-0.568 0,0"
       style="fill:#74b5c0;fill-opacity:1;fill-rule:nonzero;stroke:none"
       transform="matrix(1.3333333,0,0,-1.3333333,1476.6313,754.8572)"
       clip-path="url(#clipPath82)" />
    <path
       id="path83"
       d="M 0,0 C -0.043,0.468 -0.086,0.936 -0.129,1.404 -0.086,0.936 -0.043,0.468 0,0"
       style="fill:#74b5c0;fill-opacity:1;fill-rule:nonzero;stroke:none"
       transform="matrix(1.3333333,0,0,-1.3333333,1530.7132,761.8104)"
       clip-path="url(#clipPath84)" />
    <path
       id="path85"
       d="M 0,0 C -0.046,0.459 -0.093,0.919 -0.139,1.378 -0.093,0.919 -0.046,0.459 0,0"
       style="fill:#74b5c0;fill-opacity:1;fill-rule:nonzero;stroke:none"
       transform="matrix(1.3333333,0,0,-1.3333333,1533.1745,784.9816)"
       clip-path="url(#clipPath86)" />
    <path
       id="path87"
       d="M 0,0 C 0.087,0.883 0.174,1.766 0.261,2.648 0.174,1.766 0.087,0.883 0,0"
       style="fill:#74b5c0;fill-opacity:1;fill-rule:nonzero;stroke:none"
       transform="matrix(1.3333333,0,0,-1.3333333,1532.4439,854.36067)"
       clip-path="url(#clipPath88)" />
    <path
       id="path89"
       d="M 0,0 C 0.092,-0.469 0.185,-0.937 0.277,-1.406 0.185,-0.937 0.092,-0.469 0,0"
       style="fill:#74b5c0;fill-opacity:1;fill-rule:nonzero;stroke:none"
       transform="matrix(1.3333333,0,0,-1.3333333,1478.3689,765.54773)"
       clip-path="url(#clipPath90)" />
    <path
       id="path91"
       d="M 0,0 C 0.039,0.765 0.078,1.529 0.117,2.294 0.078,1.529 0.039,0.765 0,0"
       style="fill:#74b5c0;fill-opacity:1;fill-rule:nonzero;stroke:none"
       transform="matrix(1.3333333,0,0,-1.3333333,1533.8119,835.74333)"
       clip-path="url(#clipPath92)" />
    <path
       id="path93"
       d="M 0,0 C -0.093,-0.759 -0.185,-1.518 -0.278,-2.277 -0.185,-1.518 -0.093,-0.759 0,0"
       style="fill:#74b5c0;fill-opacity:1;fill-rule:nonzero;stroke:none"
       transform="matrix(1.3333333,0,0,-1.3333333,1479.9213,852.1576)"
       clip-path="url(#clipPath94)" />
    <path
       id="path95"
       d="M 0,0 C -0.033,-0.291 -0.067,-0.582 -0.1,-0.873 -0.067,-0.582 -0.033,-0.291 0,0"
       style="fill:#74b5c0;fill-opacity:1;fill-rule:nonzero;stroke:none"
       transform="matrix(1.3333333,0,0,-1.3333333,1479.3929,856.49413)"
       clip-path="url(#clipPath96)" />
    <path
       id="path97"
       d="M 0,0 C 0.032,0.291 0.064,0.583 0.096,0.874 0.064,0.582 0.032,0.291 0,0"
       style="fill:#74b5c0;fill-opacity:1;fill-rule:nonzero;stroke:none"
       transform="matrix(1.3333333,0,0,-1.3333333,1531.7596,860.15547)"
       clip-path="url(#clipPath98)" />
    <path
       id="path99"
       d="M 0,0 C 0.052,-0.297 0.104,-0.594 0.156,-0.89 0.104,-0.593 0.052,-0.297 0,0"
       style="fill:#74b5c0;fill-opacity:1;fill-rule:nonzero;stroke:none"
       transform="matrix(1.3333333,0,0,-1.3333333,1477.3415,758.67213)"
       clip-path="url(#clipPath100)" />
    <path
       id="path101"
       d="M 0,0 C 0.015,0.29 0.03,0.58 0.046,0.87 0.03,0.58 0.015,0.29 0,0"
       style="fill:#74b5c0;fill-opacity:1;fill-rule:nonzero;stroke:none"
       transform="matrix(1.3333333,0,0,-1.3333333,1533.0624,848.25293)"
       clip-path="url(#clipPath102)" />
    <path
       id="path103"
       d="M 0,0 C -0.328,-0.224 -0.656,-0.448 -0.985,-0.672 -0.657,-0.448 -0.328,-0.224 0,0"
       style="fill:#74b5c0;fill-opacity:1;fill-rule:nonzero;stroke:none"
       transform="matrix(1.3333333,0,0,-1.3333333,1267.4684,1000.3707)"
       clip-path="url(#clipPath104)" />
    <path
       id="path105"
       d="m 0,0 c 0,0 0.01,0.13 0.01,0.13 0,0 0.115,-0.076 0.115,-0.076 z"
       style="fill:#74b5c0;fill-opacity:1;fill-rule:nonzero;stroke:none"
       transform="matrix(1.3333333,0,0,-1.3333333,1533.6888,838.00493)"
       clip-path="url(#clipPath106)" />
    <path
       id="path107"
       d="M 0,0 C -0.16,-0.124 -0.319,-0.248 -0.479,-0.372 -0.319,-0.248 -0.16,-0.124 0,0"
       style="fill:#74b5c0;fill-opacity:1;fill-rule:nonzero;stroke:none"
       transform="matrix(1.3333333,0,0,-1.3333333,1300.0469,977.56533)"
       clip-path="url(#clipPath108)" />
    <path
       id="path109"
       d="m 0,0 c -0.071,0.076 -0.065,0.146 0.019,0.208 0,-0.001 0.106,-0.116 0.106,-0.116 z"
       style="fill:#74b5c0;fill-opacity:1;fill-rule:nonzero;stroke:none"
       transform="matrix(1.3333333,0,0,-1.3333333,1531.2096,864.3764)"
       clip-path="url(#clipPath110)" />
    <path
       id="path111"
       d="M 0,0 C -0.025,-0.175 -0.049,-0.349 -0.073,-0.524 -0.049,-0.349 -0.025,-0.174 0,0"
       style="fill:#74b5c0;fill-opacity:1;fill-rule:nonzero;stroke:none"
       transform="matrix(1.3333333,0,0,-1.3333333,1478.0139,865.87707)"
       clip-path="url(#clipPath112)" />
    <path
       id="path113"
       d="M 0,0 C 0.02,-0.151 0.04,-0.303 0.059,-0.454 0.011,-0.353 -0.05,-0.255 -0.08,-0.149 -0.091,-0.11 -0.029,-0.05 0,0"
       style="fill:#74b5c0;fill-opacity:1;fill-rule:nonzero;stroke:none"
       transform="matrix(1.3333333,0,0,-1.3333333,1477.9521,762.37733)"
       clip-path="url(#clipPath114)" />
    <path
       id="path115"
       d="M 0,0 C -1.019,1.617 -2.039,3.234 -3.057,4.848 -2.037,3.23 -1.019,1.615 0,0"
       style="fill:#1398AC;fill-opacity:1;fill-rule:nonzero;stroke:none"
       transform="matrix(1.3333333,0,0,-1.3333333,1348.4665,706.0316)"
       clip-path="url(#clipPath116)" />
    <path
       id="path117"
       d="M 0,0 C -0.509,0.855 -1.019,1.709 -1.526,2.561 -1.017,1.705 -0.508,0.853 0,0"
       style="fill:#1398AC;fill-opacity:1;fill-rule:nonzero;stroke:none"
       transform="matrix(1.3333333,0,0,-1.3333333,1344.0865,699.14173)"
       clip-path="url(#clipPath118)" />
    <path
       id="path119"
       d="M 0,0 C -0.143,0.257 -0.287,0.514 -0.429,0.768 -0.285,0.511 -0.143,0.255 0,0"
       style="fill:#1398AC;fill-opacity:1;fill-rule:nonzero;stroke:none"
       transform="matrix(1.3333333,0,0,-1.3333333,1353.3791,715.40413)"
       clip-path="url(#clipPath120)" />
    <path
       id="path121"
       d="M 0,0 C -0.141,0.244 -0.283,0.489 -0.423,0.73 -0.281,0.485 -0.141,0.242 0,0"
       style="fill:#1398AC;fill-opacity:1;fill-rule:nonzero;stroke:none"
       transform="matrix(1.3333333,0,0,-1.3333333,1350.4,709.71213)"
       clip-path="url(#clipPath122)" />
    <path
       id="path123"
       d="m 0,0 -0.167,0.058 c 0,0 0.017,0.179 0.019,0.178 0.003,-0.002 0.157,-0.065 0.157,-0.065 z"
       style="fill:#1398AC;fill-opacity:1;fill-rule:nonzero;stroke:none"
       transform="matrix(1.3333333,0,0,-1.3333333,1341.7024,694.034)"
       clip-path="url(#clipPath124)" />
    <path
       id="path125"
       d="m 0,0 -0.106,0.049 c 0,0 0.013,0.117 0.014,0.115 0.001,-0.002 0.137,-0.033 0.137,-0.033 z"
       style="fill:#1398AC;fill-opacity:1;fill-rule:nonzero;stroke:none"
       transform="matrix(1.3333333,0,0,-1.3333333,1353.998,716.65533)"
       clip-path="url(#clipPath126)" />
  </g>
</svg>
